# AST/ASF file generated using VICON BodyLanguage
# -----------------------------------------------
:version 1.10
:name VICON
:units
  mass 1.0
  length 0.45
  angle deg
:documentation
   .ast/.asf automatically generated from VICON data using
   VICON BodyBuilder and BodyLanguage model FoxedUp or BRILLIANT.MOD
:root
   order TX TY TZ RX RY RZ
   axis XYZ
   position 0 0 0  
   orientation 0 0 0 
:bonedata
  begin
     id 1 
     name lhipjoint
     direction 0.63403 -0.759788 0.143974 
     length 2.51904 
     axis 0 0 0  XYZ
  end
  begin
     id 2 
     name lfemur
     direction 0.34202 -0.939693 0  
     length 7.42313  
     axis 0 0 20  XYZ
    dof rx ry rz
    limits (-160.0 20.0)
           (-70.0 70.0)
           (-60.0 70.0)
  end
  begin
     id 3 
     name ltibia
     direction 0.34202 -0.939693 0   
     length 8.10141   
     axis 0 0 20   XYZ
    dof rx
    limits (-10.0 170.0)
  end
  begin
     id 4 
     name lfoot
     direction 0.0927455 -0.254816 0.962532   
     length 2.14078   
     axis -90 7.62852e-016 20   XYZ
    dof rx rz
    limits (-45.0 90.0)
           (-70.0 20.0)
  end
  begin
     id 5 
     name ltoes
     direction 1.53556e-011 -4.21949e-011 1   
     length 1.07182   
     axis -90 7.62852e-016 20   XYZ
    dof rx
    limits (-90.0 20.0)
  end
  begin
     id 6 
     name rhipjoint
     direction -0.659892 -0.738223 0.139888   
     length 2.59263  
     axis 0 0 0  XYZ 
  end
  begin
     id 7 
     name rfemur
     direction -0.34202 -0.939693 0   
     length 7.58575   
     axis 0 0 -20   XYZ
    dof rx ry rz
    limits (-160.0 20.0)
           (-70.0 70.0)
           (-70.0 60.0)
  end
  begin
     id 8 
     name rtibia
     direction -0.34202 -0.939693 0   
     length 8.19358   
     axis 0 0 -20   XYZ
    dof rx
    limits (-10.0 170.0)
 end
 begin
     id 9 
     name rfoot
     direction -0.0856543 -0.235333 0.968133   
     length 2.13415  
     axis -90 -7.62852e-016 -20   XYZ
    dof rx rz
    limits (-45.0 90.0)
           (-20.0 70.0)
  end
  begin
     id 10 
     name rtoes
     direction -1.53551e-011 -4.21811e-011 1   
     length 1.07055   
     axis -90 -7.62852e-016 -20   XYZ
    dof rx
    limits (-90.0 20.0)
  end
  begin
     id 11 
     name lowerback
     direction 0.025219 0.998394 -0.0507326   
     length 1.91844   
     axis 0 0 0   XYZ
    dof rx ry rz
    limits (-20.0 45.0)
           (-30.0 30.0)
           (-30.0 30.0)
  end
  begin
     id 12 
     name upperback
     direction 0.0213103 0.99967 -0.0143101   
     length 1.92246   
     axis 0 0 0   XYZ
    dof rx ry rz
    limits (-20.0 45.0)
           (-30.0 30.0)
           (-30.0 30.0)
  end
  begin
     id 13 
     name thorax
     direction 0.00920974 0.99991 0.00971518   
     length 1.92239   
     axis 0 0 0   XYZ
    dof rx ry rz
    limits (-20.0 45.0)
           (-30.0 30.0)
           (-30.0 30.0)
  end
  begin
     id 14 
     name lowerneck
     direction 0.0598257 0.997249 0.0437612   
     length 3.13679   
     axis 0 0 0   XYZ
    dof rx ry rz
    limits (-20.0 45.0)
           (-30.0 30.0)
           (-30.0 30.0)
  end
  begin
     id 15 
     name upperneck
     direction -0.035342 0.999338 0.00863891   
     length 3.16283   
     axis 0 0 0   XYZ
    dof rx ry rz
    limits (-20.0 45.0)
           (-30.0 30.0)
           (-30.0 30.0)
  end
  begin
     id 16
     name head
     direction 0.37144 0.811566 0.450991  
     length 1.2838  
     axis 0 0 0   XYZ
    dof rx ry rz
    limits (-20.0 45.0)
           (-30.0 30.0)
           (-30.0 30.0)
  end
  begin
     id 17 
     name lclavicle
     direction 0.961094 0.274654 -0.0293862  
     length 3.63466  
     axis 0 0 0   XYZ
    dof ry rz
    limits (-20.0 10.0)
           (0.0 20.0)
  end
  begin
     id 18 
     name lhumerus
     direction 1 -4.48963e-011 1.10303e-027   
     length 5.12842   
     axis 180 -30 -90   XYZ
    dof rx ry rz
    limits (-60.0 90.0)
           (-90.0 90.0)
           (-90.0 90.0)
  end
  begin
     id 19
     name lradius
     direction 1 -4.48968e-011 4.13199e-027   
     length 3.47396   
     axis 180 -30 -90   XYZ
    dof rx
    limits (-10.0 170.0)
  end
  begin
     id 20
     name lwrist
     direction 1 -4.48948e-011 9.12708e-027   
     length 1.73698   
     axis -6.84618e-015 90 90   XYZ
    dof ry
    limits (-180.0 0.0)
 end
  begin
     id 21 
     name lhand
     direction 1 -4.49057e-011 1.82749e-026   
     length 0.728607   
     axis -1.16502e-014 90 90   XYZ
    dof rx rz
    limits (-90.0 90.0)
           (-45.0 45.0)
  end
  begin
     id 22 
     name lfingers
     direction 1 -4.48912e-011 3.64949e-026   
     length 0.587422   
     axis -2.33008e-014 90 90   XYZ
    dof rx
    limits (0.0 90.0)
  end
  begin
     id 23
     name lthumb
     direction 0.707107 -6.34995e-011 0.707107   
     length 0.843424   
     axis -90 45 5.69224e-014   XYZ
    dof rx rz
    limits (-45.0 45.0)
           (-45.0 45.0)
  end
  begin
     id 24 
     name rclavicle
     direction -0.90514 0.421881 -0.0523369   
     length 3.57139  
     axis 0 0 0   XYZ 
    dof ry rz
    limits (-10.0 20.0)
           (-20.0 0.0)
  end
  begin
     id 25 
     name rhumerus
     direction -1 -4.48954e-011 -1.76662e-027  
     length 5.48477   
     axis 180 30 90   XYZ
    dof rx ry rz
    limits (-90.0 60.0)
           (-90.0 90.0)
           (-90.0 90.0)
  end
  begin
     id 26 
     name rradius
     direction -1 -4.48982e-011 1.26841e-027   
     length 3.47856   
     axis 180 30 90   XYZ
    dof rx
    limits (-10.0 170.0)
  end
  begin
     id 27 
     name rwrist
     direction -1 -4.49037e-011 9.13554e-027   
     length 1.73928   
     axis -6.84618e-015 -90 -90   XYZ
    dof ry
    limits (-180.0 0.0)
  end
  begin
     id 28
     name rhand
     direction -1 -4.48871e-011 1.82397e-026   
     length 0.709974   
     axis -1.16502e-014 -90 -90   XYZ
    dof rx rz
    limits (-90.0 90.0)
           (-45.0 45.0)
  end
  begin
     id 29
     name rfingers
     direction -1 -4.48994e-011 3.65258e-026   
     length 0.572399   
     axis -2.33008e-014 -90 -90   XYZ
    dof rx
    limits (0.0 90.0)
  end
  begin
     id 30
     name rthumb
     direction -0.707107 -6.34861e-011 0.707107   
     length 0.821855   
     axis -90 -45 -5.69224e-014   XYZ
    dof rx rz
    limits (-45.0 45.0)
           (-45.0 45.0)
  end
:hierarchy
  begin
    root lhipjoint rhipjoint lowerback
    lhipjoint lfemur
    lfemur ltibia
    ltibia lfoot
    lfoot ltoes
    rhipjoint rfemur
    rfemur rtibia
    rtibia rfoot
    rfoot rtoes
    lowerback upperback
    upperback thorax
    thorax lowerneck lclavicle rclavicle
    lowerneck upperneck
    upperneck head
    lclavicle lhumerus
    lhumerus lradius
    lradius lwrist
    lwrist lhand lthumb
    lhand lfingers
    rclavicle rhumerus
    rhumerus rradius
    rradius rwrist
    rwrist rhand rthumb
    rhand rfingers
  end

#!OML:ASF F:\VICON\USERDATA\INSTALL\Justin1\Justin1.ASF
:FULLY-SPECIFIED
:DEGREES
1773
root -0.0549762 18.1753 -3.39291 3.83233 4.96434 -3.1502
lowerback -0.326518 -1.57561 1.9937
upperback -2.04821 -2.03182 3.37714
thorax -1.86601 -1.01749 2.37724
lowerneck -11.9815 -2.25988 -4.04961
upperneck 19.8271 -1.7797 -2.38568
head 8.15028 -1.38312 -0.306804
rclavicle 9.21961e-015 -2.38542e-014
rhumerus -81.7913 46.3713 -74.5251
rradius 108.404
rwrist 12.9335
rhand -30.957 52.0588
rfingers 7.12502
rthumb -4.24162 22.1213
lclavicle 9.21961e-015 -2.38542e-014
lhumerus -97.7655 -44.4411 101.525
lradius 107.472
lwrist -20.3738
lhand -25.8426 5.78944
lfingers 7.12502
lthumb 0.697745 35.768
rfemur -13.8851 7.26216 28.2302
rtibia 32.7988
rfoot -19.7139 -13.9298
rtoes 30.5937
lfemur -13.0639 -10.9396 -18.3131
ltibia 30.1394
lfoot -18.5077 8.46327
ltoes 4.96201
1774
root -0.0595278 18.1746 -3.3909 3.79814 5.0672 -3.10818
lowerback -0.438004 -1.59429 1.9399
upperback -1.97578 -2.06509 3.34741
thorax -1.72706 -1.03349 2.37167
lowerneck -12.0061 -2.25891 -3.93467
upperneck 19.8059 -1.79611 -2.41068
head 8.14565 -1.38448 -0.335888
rclavicle -2.46547e-014 3.97569e-015
rhumerus -83.1425 46.3755 -75.9139
rradius 108.84
rwrist 13.5241
rhand -31.312 52.5143
rfingers 7.12502
rthumb -4.58443 22.5839
lclavicle -2.46547e-014 3.97569e-015
lhumerus -98.5859 -44.2854 102.716
lradius 107.184
lwrist -20.9245
lhand -26.6686 5.82609
lfingers 7.12502
lthumb -0.100022 35.8058
rfemur -13.8512 7.26343 28.2181
rtibia 32.8237
rfoot -19.7343 -14.026
rtoes 30.6955
lfemur -13.0085 -10.9401 -18.3424
ltibia 30.0846
lfoot -18.4805 8.46179
ltoes 4.52293
1775
root -0.062344 18.1732 -3.38842 3.73169 5.1613 -3.15052
lowerback -0.482924 -1.62512 2.01893
upperback -1.9102 -2.11051 3.31908
thorax -1.63712 -1.05754 2.29565
lowerneck -12.3018 -2.24437 -3.73019
upperneck 19.9604 -1.78086 -2.49596
head 8.24725 -1.37476 -0.40176
rclavicle 9.50439e-015 -1.27222e-014
rhumerus -84.6141 46.3359 -77.6689
rradius 109.187
rwrist 14.0976
rhand -31.706 52.8153
rfingers 7.12502
rthumb -4.96483 22.8934
lclavicle 9.50439e-015 -1.27222e-014
lhumerus -99.199 -44.0146 103.803
lradius 106.791
lwrist -21.2501
lhand -27.2147 5.66128
lfingers 7.12502
lthumb -0.627438 35.6401
rfemur -13.7942 7.22712 28.2906
rtibia 32.8547
rfoot -19.7458 -14.1069
rtoes 30.7904
lfemur -12.9201 -10.9648 -18.2886
ltibia 30.0207
lfoot -18.4703 8.42067
ltoes 4.45179
1776
root -0.0631814 18.1703 -3.38362 3.65614 5.29476 -3.13348
lowerback -0.539432 -1.68986 2.0448
upperback -1.83666 -2.20263 3.27079
thorax -1.53034 -1.10423 2.22852
lowerneck -11.8131 -2.30176 -3.9751
upperneck 19.7571 -1.89784 -2.22781
head 8.09683 -1.41589 -0.276202
rclavicle 2.68825e-015 -2.06736e-014
rhumerus -86.1488 46.1908 -79.6651
rradius 109.549
rwrist 14.648
rhand -32.0924 52.8122
rfingers 7.12502
rthumb -5.33794 22.8994
lclavicle 2.68825e-015 -2.06736e-014
lhumerus -99.6229 -43.6178 104.85
lradius 106.242
lwrist -21.4111
lhand -27.4542 5.72032
lfingers 7.12502
lthumb -0.858729 35.6983
rfemur -13.6839 7.08973 28.3
rtibia 32.8623
rfoot -19.779 -14.1534
rtoes 30.6151
lfemur -12.8013 -11.0187 -18.3096
ltibia 29.9802
lfoot -18.4837 8.37724
ltoes 4.3768
1777
root -0.0643035 18.1668 -3.38293 3.61123 5.39389 -3.11255
lowerback -0.519599 -1.74631 2.04614
upperback -1.80464 -2.27893 3.22655
thorax -1.50858 -1.1427 2.18272
lowerneck -11.6137 -2.29127 -4.00503
upperneck 19.6774 -1.91454 -2.11238
head 8.0354 -1.41247 -0.231385
rclavicle -1.66016e-014 4.77083e-014
rhumerus -87.7228 45.9926 -81.8899
rradius 109.807
rwrist 15.1385
rhand -32.4001 53.0704
rfingers 7.12502
rthumb -5.63499 23.1653
lclavicle -1.66016e-014 4.77083e-014
lhumerus -99.9075 -43.1421 105.841
lradius 105.665
lwrist -21.5501
lhand -27.8261 5.78757
lfingers 7.12502
lthumb -1.21797 35.7638
rfemur -13.5997 7.01459 28.2927
rtibia 32.8366
rfoot -19.8175 -14.15
rtoes 30.6231
lfemur -12.7275 -11.0409 -18.3243
ltibia 29.9655
lfoot -18.5383 8.29229
ltoes 4.41828
1778
root -0.0655638 18.1663 -3.38505 3.60136 5.44741 -3.19602
lowerback -0.466327 -1.76543 2.14278
upperback -1.78773 -2.30205 3.24555
thorax -1.52373 -1.15543 2.14996
lowerneck -11.6301 -2.27924 -4.01651
upperneck 19.6325 -1.89999 -2.0916
head 8.02357 -1.40364 -0.220884
rclavicle 3.87972e-014 -3.26007e-014
rhumerus -89.2404 45.7681 -84.1726
rradius 109.94
rwrist 15.7219
rhand -32.6113 53.7648
rfingers 7.12502
rthumb -5.83891 23.8653
lclavicle 3.87972e-014 -3.26007e-014
lhumerus -100.069 -42.6949 106.855
lradius 105.128
lwrist -21.634
lhand -28.2531 5.81783
lfingers 7.12502
lthumb -1.63039 35.7913
rfemur -13.5846 7.019 28.3907
rtibia 32.7853
rfoot -19.8048 -14.2027
rtoes 30.7098
lfemur -12.7404 -11.0535 -18.2214
ltibia 29.9683
lfoot -18.5603 8.2711
ltoes 4.28126
1779
root -0.066672 18.1672 -3.386 3.60914 5.44525 -3.27829
lowerback -0.474218 -1.75586 2.23681
upperback -1.74971 -2.29029 3.27044
thorax -1.48325 -1.15049 2.12174
lowerneck -11.6234 -2.26196 -3.97447
upperneck 19.5194 -1.87651 -2.14409
head 7.98334 -1.39244 -0.241634
rclavicle -3.83965e-014 2.14687e-014
rhumerus -90.6771 45.3556 -86.4791
rradius 110.081
rwrist 16.4935
rhand -32.9844 53.9867
rfingers 7.12502
rthumb -6.19912 24.0974
lclavicle -3.83965e-014 2.14687e-014
lhumerus -100.172 -42.2659 107.897
lradius 104.585
lwrist -22.0471
lhand -28.5119 6.04704
lfingers 7.12502
lthumb -1.88034 36.0185
rfemur -13.5894 7.02829 28.4803
rtibia 32.7255
rfoot -19.7057 -14.2768
rtoes 30.353
lfemur -12.772 -11.1159 -18.1174
ltibia 29.9864
lfoot -18.6114 8.27816
ltoes 4.73152
1780
root -0.0676138 18.1684 -3.38648 3.60388 5.45436 -3.28358
lowerback -0.495421 -1.76287 2.25318
upperback -1.68095 -2.30335 3.26506
thorax -1.4013 -1.15703 2.10469
lowerneck -11.5961 -2.24165 -3.90635
upperneck 19.3362 -1.85907 -2.18695
head 7.9158 -1.37997 -0.263194
rclavicle -2.36057e-016 1.74931e-014
rhumerus -91.9596 44.8893 -88.8951
rradius 110.149
rwrist 17.1865
rhand -33.2732 54.175
rfingers 7.12502
rthumb -6.47792 24.294
lclavicle -2.36057e-016 1.74931e-014
lhumerus -100.242 -41.7749 108.944
lradius 104.049
lwrist -22.8706
lhand -28.9499 6.49147
lfingers 7.12502
lthumb -2.30335 36.4588
rfemur -13.5733 7.0213 28.4922
rtibia 32.6928
rfoot -19.6905 -14.3005
rtoes 30.0856
lfemur -12.7592 -11.1557 -18.1015
ltibia 29.9806
lfoot -18.6949 8.22473
ltoes 5.29175
1781
root -0.0690627 18.1695 -3.39293 3.65666 5.48411 -3.27794
lowerback -0.423019 -1.77105 2.2715
upperback -1.68473 -2.31103 3.24539
thorax -1.4472 -1.16135 2.07698
lowerneck -11.5304 -2.22681 -3.88273
upperneck 19.2314 -1.85741 -2.14753
head 7.86893 -1.37151 -0.252095
rclavicle 2.51835e-014 -2.38542e-015
rhumerus -93.2523 44.3555 -91.4752
rradius 110.16
rwrist 17.853
rhand -33.3746 54.5313
rfingers 7.12502
rthumb -6.57581 24.6534
lclavicle 2.51835e-014 -2.38542e-015
lhumerus -100.302 -41.2643 110.009
lradius 103.519
lwrist -23.4343
lhand -29.5641 6.719
lfingers 7.12502
lthumb -2.89645 36.6791
rfemur -13.6675 7.03334 28.4863
rtibia 32.7038
rfoot -19.6967 -14.3363
rtoes 30.0284
lfemur -12.827 -11.1751 -18.0756
ltibia 29.9325
lfoot -18.6769 8.1451
ltoes 5.51861
1782
root -0.0711141 18.168 -3.40002 3.69248 5.45777 -3.15541
lowerback -0.272478 -1.75383 2.17597
upperback -1.73096 -2.28138 3.15972
thorax -1.57933 -1.14624 2.04844
lowerneck -11.3196 -2.21298 -3.79826
upperneck 19.1199 -1.87306 -2.1272
head 7.79282 -1.36807 -0.257237
rclavicle 5.28022e-015 -1.59028e-015
rhumerus -94.6606 43.6125 -94.1239
rradius 110.341
rwrist 18.7134
rhand -33.684 54.6322
rfingers 7.12502
rthumb -6.87454 24.7639
lclavicle 5.28022e-015 -1.59028e-015
lhumerus -100.334 -40.5849 110.924
lradius 103.201
lwrist -23.6492
lhand -30.0305 6.66306
lfingers 7.12502
lthumb -3.34692 36.6165
rfemur -13.7562 7.07431 28.3542
rtibia 32.7558
rfoot -19.7989 -14.3128
rtoes 30.4566
lfemur -12.8502 -11.1875 -18.1908
ltibia 29.8714
lfoot -18.657 8.13022
ltoes 5.55764
1783
root -0.0735514 18.1669 -3.40346 3.68838 5.42477 -3.08468
lowerback -0.164302 -1.72757 2.12263
upperback -1.76068 -2.24204 3.0873
thorax -1.67208 -1.1266 2.00784
lowerneck -11.1079 -2.21257 -3.70522
upperneck 18.9836 -1.89738 -2.16382
head 7.70801 -1.37323 -0.28315
rclavicle -1.16165e-015 -1.19271e-014
rhumerus -95.9466 42.7763 -96.7851
rradius 110.513
rwrist 19.47
rhand -34.0552 54.9516
rfingers 7.12502
rthumb -7.23287 25.0953
lclavicle -1.16165e-015 -1.19271e-014
lhumerus -100.193 -39.6086 111.567
lradius 103.164
lwrist -24.0198
lhand -30.0746 6.37369
lfingers 7.12502
lthumb -3.38948 36.3265
rfemur -13.7735 7.07988 28.2896
rtibia 32.8116
rfoot -19.8344 -14.315
rtoes 30.5713
lfemur -12.8191 -11.2308 -18.2627
ltibia 29.8275
lfoot -18.6567 8.1769
ltoes 5.51364
1784
root -0.0772509 18.1664 -3.40869 3.75187 5.38137 -3.15017
lowerback -0.146882 -1.67841 2.19634
upperback -1.77426 -2.1749 3.05839
thorax -1.70098 -1.09436 1.937
lowerneck -11.1386 -2.22313 -3.67692
upperneck 19.0289 -1.91901 -2.14201
head 7.72834 -1.38026 -0.283587
rclavicle -1.3977e-015 -4.69132e-014
rhumerus -97.0279 41.8899 -99.5008
rradius 110.545
rwrist 20.0534
rhand -34.4226 55.4004
rfingers 7.12502
rthumb -7.5875 25.5565
lclavicle -1.3977e-015 -4.69132e-014
lhumerus -100.204 -39.1177 112.809
lradius 103.045
lwrist -23.8762
lhand -30.4262 6.33413
lfingers 7.12502
lthumb -3.72902 36.2813
rfemur -13.8805 7.1494 28.3619
rtibia 32.847
rfoot -19.8112 -14.3495
rtoes 30.5415
lfemur -12.9077 -11.2286 -18.1586
ltibia 29.8122
lfoot -18.6331 8.17476
ltoes 5.8616
